<?xml version="1.0" standalone="no"?><!DOCTYPE svg PUBLIC "-//W3C//DTD SVG 1.1//EN" "http://www.w3.org/Graphics/SVG/1.1/DTD/svg11.dtd"><svg t="1679129998180" class="icon" viewBox="0 0 1024 1024" version="1.1" xmlns="http://www.w3.org/2000/svg" p-id="3674" xmlns:xlink="http://www.w3.org/1999/xlink" width="200" height="200"><path d="M494.6 235.9c41.8 0 73.6-50.4 141-54.6C833 169.3 937.3 331 916.2 526.2c-21 193.9-126.8 347.1-299.7 395.6-35.4 9.9-65.7-12.6-104.2-12.6-33.8 0-73.6 23.8-105 16.1-179.6-44-290.5-203.4-312.8-399-21.9-192 47.8-340.1 225.3-336.1 125.4 2.7 133 45.7 174.8 45.7z" fill="#FF3838" p-id="3675"></path><path d="M693.4 212.9c57.5 95.6 128.2 237.8 27.9 417.8-87.4 156.7-264.6 250.7-264.6 250.7S836.3 1027.8 886 524.2c17.4-176.2-75.7-321.9-255.4-311.1C462 354 379.9 219.9 387 268.6c7.2 48.6 30.6 74.9 85.2 83 54.6 8.1 162.6-236.1 221.2-138.7z" fill="#F01515" p-id="3676"></path><path d="M420.9 871.1c6.7 0 19.3-3.6 30.4-6.7 18.2-5.1 38.8-10.9 61.1-10.9 23.7 0 43.9 5.5 60.1 9.9 10 2.7 19.4 5.3 25.4 5.3 1.4 0 2.6-0.2 3.7-0.4 145.3-40.8 239.8-167.6 259.3-348 9.7-90-11.2-171.1-57.3-222.6-36.5-40.6-86.1-61.2-147.4-61.2-5.6 0-11.3 0.2-17 0.5-23 1.4-40.3 12-60.4 24.3-23.1 14.2-49.4 30.3-84.1 30.3-29.8 0-50.4-11.3-66.9-20.3-20.5-11.3-43.8-24-109.1-25.4l-5.6-0.1c-51 0-89.2 15.1-116.8 46.1-41.3 46.3-57.7 127.3-46.2 228.1 20.7 183.5 121.9 314.8 270 351.1h0.8m0 55.7c-4.7 0-9.2-0.5-13.5-1.6-179.6-44-290.5-203.4-312.8-399C73 336.8 140.6 190.1 313 190.1c2.3 0 4.6 0 6.9 0.1 125.3 2.8 133 45.8 174.7 45.8s73.6-50.4 141-54.6c6.9-0.4 13.7-0.6 20.4-0.6 184.1 0 280.5 157.2 260.2 345.5-21 193.9-126.8 347.1-299.7 395.6-6.4 1.8-12.6 2.5-18.7 2.5-27.9 0-53.9-15.2-85.5-15.2-29 0-62.5 17.6-91.4 17.6z" fill="#3C3A50" p-id="3677"></path><path d="M325.8 680.7c11.1 10.7 11.5 28.3 0.8 39.4-10.6 11.1-28.3 11.5-39.4 0.8-5.1-4.8-9.1-8-12.8-10.9-6.3-4.9-11.4-8.8-18.4-19.1-8.6-12.7-5.3-30 7.4-38.7 12.7-8.7 30-5.3 38.7 7.3 2 2.9 2 2.9 6.4 6.4 4.3 3.4 10.1 7.9 17.3 14.8m-64.1-118.3c5.3 14.5-2.1 30.4-16.6 35.7-14.4 5.3-30.4-2.1-35.7-16.6-7-19.1-12.3-39.1-15-62.4-8.5-73.8 5.2-131.3 37.2-167 24.1-27.1 58.6-41.7 101.8-41.7 15.4 0 27.9 12.5 27.9 27.9s-12.5 27.9-27.9 27.9c-26.7 0-46.4 7.6-60.3 23.1-21.5 24.1-29.8 68-23.4 123.7 2 16.7 5.8 32.4 12 49.4" fill="#FFFFFF" p-id="3678"></path><path d="M523.3 323.5c-5 14.6-20.8 22.3-35.4 17.4-14.6-5-22.3-20.8-17.4-35.4 1.2-3.4 1.2-13.2 1.2-26.8 0.2-56.2 0.6-177.3 82.3-177.3 15.4 0 27.9 12.5 27.9 27.9s-12.5 27.9-27.9 27.9c-7.9 0-26.2 11.9-26.6 121.8 0.1 20.9 0 32.5-4.1 44.5" fill="#3C3A50" p-id="3679"></path></svg>